<svg width="145" height="35" viewBox="0 0 145 35" fill="none" xmlns="http://www.w3.org/2000/svg">
<path d="M34.328 23.448C34.328 23.96 34.4453 24.3653 34.68 24.664C34.9147 24.9627 35.192 25.1867 35.512 25.336C35.8533 25.464 36.2053 25.5493 36.568 25.592C36.9307 25.6347 37.24 25.656 37.496 25.656V27C37.24 27 36.8987 26.9893 36.472 26.968C36.0667 26.9253 35.64 26.8827 35.192 26.84C34.744 26.7973 34.3067 26.7653 33.88 26.744C33.4747 26.7013 33.144 26.68 32.888 26.68C32.632 26.68 32.2907 26.7013 31.864 26.744C31.4587 26.7653 31.032 26.7973 30.584 26.84C30.136 26.8827 29.6987 26.9253 29.272 26.968C28.8667 26.9893 28.536 27 28.28 27V25.656C28.5573 25.656 28.8773 25.6347 29.24 25.592C29.624 25.5493 29.976 25.464 30.296 25.336C30.616 25.1867 30.8827 24.9627 31.096 24.664C31.3307 24.3653 31.448 23.96 31.448 23.448V4.152C31.448 3.49066 31.192 2.98933 30.68 2.648C30.1893 2.28533 29.496 2.104 28.6 2.104C28.6 1.74133 28.728 1.432 28.984 1.176C29.24 0.898665 29.688 0.759998 30.328 0.759998C30.8827 0.759998 31.3733 0.855998 31.8 1.048C32.248 1.24 32.6107 1.47467 32.888 1.752C33.1653 1.47467 33.5173 1.24 33.944 1.048C34.392 0.855998 34.8933 0.759998 35.448 0.759998C36.088 0.759998 36.536 0.898665 36.792 1.176C37.048 1.432 37.176 1.74133 37.176 2.104C36.3013 2.104 35.608 2.28533 35.096 2.648C34.584 2.98933 34.328 3.49066 34.328 4.152V15L41.304 6.68C41.496 6.46667 41.7307 6.17867 42.008 5.816C42.2853 5.45333 42.5627 5.08 42.84 4.696C43.1173 4.312 43.352 3.94933 43.544 3.608C43.736 3.26667 43.832 2.98933 43.832 2.776C43.832 2.584 43.7467 2.44533 43.576 2.36C43.4267 2.25333 43.2347 2.18933 43 2.168C42.7867 2.12533 42.5627 2.104 42.328 2.104C42.0933 2.104 41.8907 2.09333 41.72 2.072C41.7413 1.85867 41.8267 1.67733 41.976 1.528C42.1253 1.35733 42.296 1.21867 42.488 1.112C42.7013 1.00533 42.9253 0.930666 43.16 0.887999C43.3947 0.845332 43.6187 0.823999 43.832 0.823999C44.1947 0.866666 44.536 0.962666 44.856 1.112C45.1973 1.24 45.4853 1.48533 45.72 1.848C45.9547 1.57067 46.2747 1.32533 46.68 1.112C47.1067 0.898665 47.5973 0.791998 48.152 0.791998C48.6427 0.791998 49.0587 0.898665 49.4 1.112C49.7627 1.304 49.9547 1.63467 49.976 2.104C49.912 2.104 49.8587 2.104 49.816 2.104C49.7733 2.08267 49.6987 2.072 49.592 2.072C49.016 2.072 48.4293 2.27467 47.832 2.68C47.256 3.08533 46.7013 3.56533 46.168 4.12C45.6347 4.67467 45.1333 5.25067 44.664 5.848C44.216 6.424 43.8427 6.89333 43.544 7.256L39.608 11.832L48.12 23.448C48.4187 23.8533 48.76 24.1947 49.144 24.472C49.528 24.7493 49.9227 24.984 50.328 25.176C50.7333 25.3467 51.1173 25.4747 51.48 25.56C51.864 25.624 52.1947 25.656 52.472 25.656V27C52.216 27 51.832 26.9893 51.32 26.968C50.8293 26.9253 50.3067 26.8827 49.752 26.84C49.1973 26.7973 48.664 26.7653 48.152 26.744C47.6613 26.7013 47.288 26.68 47.032 26.68C46.776 26.68 46.4133 26.7013 45.944 26.744C45.4747 26.7653 44.984 26.7973 44.472 26.84C43.96 26.8827 43.4693 26.9253 43 26.968C42.552 26.9893 42.2 27 41.944 27V25.656C42.2 25.656 42.488 25.6453 42.808 25.624C43.1493 25.5813 43.4693 25.5173 43.768 25.432C44.0667 25.3467 44.312 25.2187 44.504 25.048C44.7173 24.8773 44.824 24.6427 44.824 24.344C44.824 23.9813 44.7067 23.608 44.472 23.224C44.2373 22.8187 44.0667 22.552 43.96 22.424L37.752 14.008L34.328 17.976V23.448ZM60.6133 27.448C59.5466 27.448 58.5546 27.2667 57.6373 26.904C56.7413 26.52 55.9519 25.9867 55.2693 25.304C54.5866 24.6213 54.0533 23.8 53.6693 22.84C53.2853 21.88 53.0933 20.8027 53.0933 19.608C53.0933 18.392 53.2853 17.3147 53.6693 16.376C54.0533 15.4373 54.5866 14.648 55.2693 14.008C55.9519 13.3467 56.7413 12.856 57.6373 12.536C58.5546 12.1947 59.5466 12.024 60.6133 12.024C61.6586 12.024 62.6399 12.1947 63.5573 12.536C64.4746 12.856 65.2746 13.3467 65.9573 14.008C66.6399 14.648 67.1733 15.4373 67.5573 16.376C67.9413 17.3147 68.1333 18.392 68.1333 19.608C68.1333 20.824 67.9413 21.912 67.5573 22.872C67.1733 23.832 66.6399 24.6533 65.9573 25.336C65.2746 26.0187 64.4746 26.5413 63.5573 26.904C62.6399 27.2667 61.6586 27.448 60.6133 27.448ZM60.6453 25.976C61.4346 25.976 62.1066 25.8053 62.6613 25.464C63.2159 25.1227 63.6746 24.664 64.0373 24.088C64.3999 23.4907 64.6666 22.808 64.8373 22.04C65.0079 21.272 65.0933 20.4613 65.0933 19.608C65.0933 18.776 65.0079 17.9867 64.8373 17.24C64.6666 16.4933 64.3999 15.8533 64.0373 15.32C63.6746 14.7653 63.2053 14.328 62.6293 14.008C62.0746 13.688 61.4026 13.528 60.6133 13.528C59.8239 13.528 59.1413 13.688 58.5653 14.008C58.0106 14.3067 57.5519 14.7333 57.1893 15.288C56.8266 15.8213 56.5599 16.4613 56.3893 17.208C56.2186 17.9547 56.1333 18.7547 56.1333 19.608C56.1333 20.4613 56.2186 21.272 56.3893 22.04C56.5599 22.808 56.8266 23.4907 57.1893 24.088C57.5733 24.664 58.0426 25.1227 58.5973 25.464C59.1733 25.8053 59.8559 25.976 60.6453 25.976ZM85.2775 23.832C85.2775 24.2587 85.3415 24.6107 85.4695 24.888C85.6188 25.1653 85.7895 25.3893 85.9815 25.56C86.1948 25.7307 86.4295 25.8587 86.6855 25.944C86.9628 26.008 87.2295 26.04 87.4855 26.04V27C87.2295 27 86.9415 26.9893 86.6215 26.968C86.3228 26.9253 86.0028 26.8827 85.6615 26.84C85.3202 26.7973 84.9895 26.7653 84.6695 26.744C84.3708 26.7013 84.0935 26.68 83.8375 26.68C83.5815 26.68 83.2935 26.7013 82.9735 26.744C82.6748 26.7653 82.3548 26.7973 82.0135 26.84C81.6722 26.8827 81.3415 26.9253 81.0215 26.968C80.7228 26.9893 80.4455 27 80.1895 27V26.04C80.7655 26.04 81.2775 25.88 81.7255 25.56C82.1735 25.24 82.3975 24.664 82.3975 23.832V18.872C82.3975 17.8267 82.3228 16.9627 82.1735 16.28C82.0455 15.5973 81.8535 15.0533 81.5975 14.648C81.3415 14.2427 81.0322 13.9547 80.6695 13.784C80.3282 13.6133 79.9548 13.528 79.5495 13.528C79.0588 13.528 78.5788 13.6347 78.1095 13.848C77.6402 14.0613 77.2135 14.4027 76.8295 14.872C76.4455 15.32 76.1362 15.9067 75.9015 16.632C75.6668 17.3573 75.5495 18.2427 75.5495 19.288V23.832C75.5495 24.2587 75.6135 24.6107 75.7415 24.888C75.8908 25.1653 76.0615 25.3893 76.2535 25.56C76.4668 25.7307 76.7015 25.8587 76.9575 25.944C77.2348 26.008 77.5015 26.04 77.7575 26.04V27C77.5015 27 77.2135 26.9893 76.8935 26.968C76.5948 26.9253 76.2748 26.8827 75.9335 26.84C75.5922 26.7973 75.2615 26.7653 74.9415 26.744C74.6428 26.7013 74.3655 26.68 74.1095 26.68C73.8535 26.68 73.5655 26.7013 73.2455 26.744C72.9468 26.7653 72.6268 26.7973 72.2855 26.84C71.9442 26.8827 71.6135 26.9253 71.2935 26.968C70.9948 26.9893 70.7175 27 70.4615 27V26.04C71.0375 26.04 71.5495 25.88 71.9975 25.56C72.4455 25.24 72.6695 24.664 72.6695 23.832V18.488C72.6695 17.6987 72.6482 17.048 72.6055 16.536C72.5842 16.0027 72.4988 15.5973 72.3495 15.32C72.2002 15.0213 71.9868 14.8187 71.7095 14.712C71.4322 14.584 71.0482 14.52 70.5575 14.52V13.72C71.0908 13.72 71.5495 13.688 71.9335 13.624C72.3388 13.56 72.7015 13.464 73.0215 13.336C73.3415 13.208 73.6295 13.0587 73.8855 12.888C74.1628 12.7173 74.4508 12.536 74.7495 12.344H75.5495V14.584C75.7842 14.2213 76.0295 13.8907 76.2855 13.592C76.5415 13.272 76.8508 12.9947 77.2135 12.76C77.5975 12.5253 78.0348 12.344 78.5255 12.216C79.0375 12.088 79.6455 12.024 80.3495 12.024C81.3095 12.024 82.1628 12.1947 82.9095 12.536C83.6562 12.8773 84.2322 13.56 84.6375 14.584C84.8082 14.2853 85.0428 13.9867 85.3415 13.688C85.6402 13.368 85.9922 13.0907 86.3975 12.856C86.8028 12.6 87.2615 12.3973 87.7735 12.248C88.2855 12.0987 88.8508 12.024 89.4695 12.024C90.3015 12.024 91.0588 12.1733 91.7415 12.472C92.4242 12.7707 93.0108 13.2507 93.5015 13.912C93.9922 14.552 94.3655 15.4053 94.6215 16.472C94.8988 17.5173 95.0375 18.7973 95.0375 20.312V23.48C95.0375 24.696 95.0802 25.6773 95.1655 26.424C95.2722 27.1493 95.4002 27.704 95.5495 28.088C95.7202 28.4933 95.9122 28.76 96.1255 28.888C96.3602 29.0373 96.5948 29.112 96.8295 29.112C97.1282 29.112 97.3948 29.048 97.6295 28.92C97.8642 28.8133 98.0668 28.6747 98.2375 28.504L98.3975 28.632C98.1628 29.1867 97.8215 29.592 97.3735 29.848C96.9468 30.1253 96.4775 30.264 95.9655 30.264C95.3468 30.264 94.8242 30.0933 94.3975 29.752C93.9922 29.4107 93.7895 28.952 93.7895 28.376C93.0428 28.376 92.5522 28.0027 92.3175 27.256C92.1042 26.5093 91.9975 25.4107 91.9975 23.96V18.936C91.9975 17.144 91.7842 15.8 91.3575 14.904C90.9308 13.9867 90.2055 13.528 89.1815 13.528C88.8828 13.528 88.5095 13.6027 88.0615 13.752C87.6135 13.88 87.1762 14.136 86.7495 14.52C86.3442 14.904 85.9922 15.448 85.6935 16.152C85.4162 16.8347 85.2775 17.7307 85.2775 18.84V23.832ZM107.363 12.024C108.6 12.024 109.656 12.2267 110.531 12.632C111.427 13.016 112.163 13.5493 112.739 14.232C113.315 14.9147 113.731 15.7253 113.987 16.664C114.264 17.5813 114.403 18.584 114.403 19.672C114.403 21.08 114.189 22.2853 113.763 23.288C113.357 24.2693 112.813 25.0693 112.131 25.688C111.469 26.3067 110.701 26.7547 109.827 27.032C108.973 27.3093 108.088 27.448 107.171 27.448C106.296 27.448 105.528 27.32 104.867 27.064C104.227 26.808 103.597 26.3387 102.979 25.656V31.832C102.979 32.2587 103.043 32.6107 103.171 32.888C103.32 33.1653 103.491 33.3893 103.683 33.56C103.896 33.7307 104.131 33.848 104.387 33.912C104.664 33.9973 104.931 34.04 105.187 34.04V35C104.931 35 104.643 34.9787 104.323 34.936C104.024 34.9147 103.704 34.8827 103.363 34.84C103.021 34.7973 102.691 34.7547 102.371 34.712C102.072 34.6907 101.795 34.68 101.539 34.68C101.283 34.68 100.995 34.6907 100.675 34.712C100.376 34.7547 100.056 34.7973 99.7148 34.84C99.3734 34.8827 99.0428 34.9147 98.7228 34.936C98.4241 34.9787 98.1468 35 97.8908 35V34.04C98.4668 34.04 98.9788 33.88 99.4268 33.56C99.8748 33.24 100.099 32.664 100.099 31.832V18.488C100.099 17.6987 100.077 17.048 100.035 16.536C100.013 16.0027 99.9281 15.5973 99.7788 15.32C99.6294 15.0213 99.4161 14.8187 99.1388 14.712C98.8614 14.584 98.4774 14.52 97.9868 14.52V13.72C98.5201 13.72 98.9788 13.688 99.3628 13.624C99.7681 13.56 100.131 13.464 100.451 13.336C100.771 13.208 101.059 13.0587 101.315 12.888C101.592 12.7173 101.88 12.536 102.179 12.344H102.979V13.944C103.661 13.24 104.387 12.7493 105.155 12.472C105.923 12.1733 106.659 12.024 107.363 12.024ZM107.203 13.496C106.456 13.496 105.805 13.6667 105.251 14.008C104.717 14.328 104.269 14.776 103.907 15.352C103.565 15.928 103.299 16.6 103.107 17.368C102.936 18.136 102.851 18.9467 102.851 19.8C102.851 20.632 102.936 21.4213 103.107 22.168C103.277 22.8933 103.544 23.544 103.907 24.12C104.269 24.6747 104.728 25.112 105.283 25.432C105.837 25.752 106.509 25.912 107.299 25.912C108.045 25.912 108.675 25.7627 109.187 25.464C109.72 25.144 110.147 24.7173 110.467 24.184C110.787 23.6293 111.011 22.9893 111.139 22.264C111.288 21.5173 111.363 20.7067 111.363 19.832C111.363 19 111.288 18.2107 111.139 17.464C111.011 16.696 110.787 16.024 110.467 15.448C110.147 14.8507 109.72 14.3813 109.187 14.04C108.653 13.6773 107.992 13.496 107.203 13.496ZM129.318 23.832C129.318 24.2587 129.382 24.6107 129.51 24.888C129.659 25.1653 129.83 25.3893 130.022 25.56C130.235 25.7307 130.47 25.8587 130.726 25.944C131.003 26.008 131.27 26.04 131.526 26.04V27C131.035 27 130.609 26.9573 130.246 26.872C129.905 26.7867 129.489 26.744 128.998 26.744C128.507 26.744 128.081 26.7547 127.718 26.776C127.355 26.7973 126.929 26.872 126.438 27V25.304C125.947 25.8587 125.361 26.36 124.678 26.808C123.995 27.2347 123.163 27.448 122.182 27.448C121.393 27.448 120.667 27.3413 120.006 27.128C119.366 26.9147 118.811 26.6053 118.342 26.2C117.894 25.7947 117.542 25.3147 117.286 24.76C117.03 24.184 116.902 23.544 116.902 22.84C116.902 22.1573 117.03 21.5493 117.286 21.016C117.563 20.4613 117.947 20.0027 118.438 19.64C118.929 19.256 119.505 18.968 120.166 18.776C120.827 18.5627 121.563 18.456 122.374 18.456C123.291 18.456 124.07 18.552 124.71 18.744C125.371 18.9147 125.947 19.1173 126.438 19.352V18.168C126.438 17.6133 126.395 17.0587 126.31 16.504C126.246 15.9493 126.107 15.448 125.894 15C125.681 14.552 125.371 14.1893 124.966 13.912C124.561 13.6347 124.038 13.496 123.398 13.496C123.121 13.496 122.811 13.528 122.47 13.592C122.15 13.656 121.851 13.7733 121.574 13.944C121.297 14.0933 121.062 14.3067 120.87 14.584C120.678 14.84 120.582 15.1707 120.582 15.576C120.582 15.7893 120.614 16.0347 120.678 16.312C120.358 16.4827 120.006 16.568 119.622 16.568C119.025 16.568 118.587 16.408 118.31 16.088C118.033 15.7467 117.894 15.3627 117.894 14.936C117.894 14.5093 118.033 14.136 118.31 13.816C118.609 13.4747 119.025 13.304 119.558 13.304C119.558 13.0693 119.665 12.8667 119.878 12.696C120.091 12.5253 120.369 12.3973 120.71 12.312C121.073 12.2053 121.467 12.1307 121.894 12.088C122.321 12.0453 122.758 12.024 123.206 12.024C124.166 12.024 125.019 12.1413 125.766 12.376C126.534 12.5893 127.174 12.9733 127.686 13.528C128.219 14.0613 128.625 14.7867 128.902 15.704C129.179 16.6 129.318 17.7413 129.318 19.128V23.832ZM123.078 25.976C123.825 25.976 124.475 25.7627 125.03 25.336C125.585 24.888 126.054 24.3547 126.438 23.736V20.536C125.947 20.3013 125.403 20.1093 124.806 19.96C124.209 19.7893 123.611 19.704 123.014 19.704C122.161 19.704 121.425 19.96 120.806 20.472C120.209 20.984 119.91 21.7093 119.91 22.648C119.91 23.6293 120.198 24.4293 120.774 25.048C121.35 25.6667 122.118 25.976 123.078 25.976ZM144.002 15C144.002 15.8107 143.725 16.408 143.17 16.792C142.637 17.1547 142.029 17.336 141.346 17.336L141.25 17.176C141.4 17.112 141.56 16.952 141.73 16.696C141.901 16.44 141.986 16.0987 141.986 15.672C141.986 14.9467 141.72 14.4133 141.186 14.072C140.653 13.7093 139.949 13.528 139.074 13.528C138.861 13.528 138.605 13.5493 138.306 13.592C138.008 13.6347 137.72 13.7307 137.442 13.88C137.165 14.0293 136.92 14.2427 136.706 14.52C136.514 14.7973 136.418 15.16 136.418 15.608C136.418 16.2053 136.621 16.6747 137.026 17.016C137.432 17.3573 137.933 17.6453 138.53 17.88C139.149 18.1147 139.81 18.3387 140.514 18.552C141.218 18.7653 141.869 19.0427 142.466 19.384C143.085 19.7253 143.597 20.1733 144.002 20.728C144.408 21.2827 144.61 22.0187 144.61 22.936C144.61 24.4293 144.045 25.56 142.914 26.328C141.805 27.0747 140.333 27.448 138.498 27.448C138.37 27.448 138.168 27.4373 137.89 27.416C137.613 27.416 137.336 27.3947 137.058 27.352C136.802 27.3093 136.568 27.2453 136.354 27.16C136.141 27.0747 136.034 26.9467 136.034 26.776C135.138 26.776 134.466 26.5413 134.018 26.072C133.57 25.6027 133.346 25.0053 133.346 24.28C133.346 23.4907 133.57 22.9253 134.018 22.584C134.488 22.2427 135.021 22.0507 135.618 22.008L135.682 22.104C135.512 22.296 135.405 22.552 135.362 22.872C135.32 23.1707 135.298 23.4053 135.298 23.576C135.298 24.0453 135.405 24.44 135.618 24.76C135.832 25.0587 136.098 25.304 136.418 25.496C136.738 25.6667 137.09 25.7947 137.474 25.88C137.88 25.944 138.274 25.976 138.658 25.976C138.744 25.976 138.936 25.9653 139.234 25.944C139.554 25.9227 139.874 25.848 140.194 25.72C140.514 25.5707 140.802 25.3467 141.058 25.048C141.314 24.728 141.442 24.2907 141.442 23.736C141.442 23.0747 141.25 22.552 140.866 22.168C140.482 21.784 139.992 21.464 139.394 21.208C138.818 20.952 138.189 20.7173 137.506 20.504C136.824 20.2693 136.184 19.992 135.586 19.672C135.01 19.352 134.53 18.936 134.146 18.424C133.762 17.8907 133.57 17.1867 133.57 16.312C133.57 15.4373 133.762 14.7227 134.146 14.168C134.53 13.6133 135.01 13.176 135.586 12.856C136.162 12.536 136.77 12.3227 137.41 12.216C138.072 12.088 138.669 12.024 139.202 12.024C139.885 12.024 140.408 12.088 140.77 12.216C141.133 12.344 141.314 12.5253 141.314 12.76C141.634 12.76 141.954 12.8027 142.274 12.888C142.594 12.952 142.882 13.0693 143.138 13.24C143.394 13.4107 143.597 13.6453 143.746 13.944C143.917 14.2213 144.002 14.5733 144.002 15Z" fill="#4F6D53"/>
<rect x="3" y="8" width="15" height="15" fill="#573700"/>
<rect y="15.2782" width="14.5355" height="14.5355" transform="rotate(-45 0 15.2782)" fill="#573700"/>
<rect x="6" y="11" width="9" height="9" fill="#4F6D53"/>
<rect x="4" y="15.2782" width="8.87868" height="8.87868" transform="rotate(-45 4 15.2782)" fill="#4F6D53"/>
</svg>
